<?xml version="1.0" encoding="UTF-8" standalone="no"?>
<!-- Created with Inkscape (http://www.inkscape.org/) -->

<svg
   width="269.1149mm"
   height="77.19809mm"
   viewBox="0 0 269.1149 77.19809"
   version="1.1"
   id="svg1"
   xml:space="preserve"
   inkscape:version="1.4.2 (f4327f4, 2025-05-13)"
   sodipodi:docname="cablekitty.svg"
   inkscape:export-filename="Documents\cablekitty.svg"
   inkscape:export-xdpi="96"
   inkscape:export-ydpi="96"
   xmlns:inkscape="http://www.inkscape.org/namespaces/inkscape"
   xmlns:sodipodi="http://sodipodi.sourceforge.net/DTD/sodipodi-0.dtd"
   xmlns="http://www.w3.org/2000/svg"
   xmlns:svg="http://www.w3.org/2000/svg"><sodipodi:namedview
     id="namedview1"
     pagecolor="#505050"
     bordercolor="#eeeeee"
     borderopacity="1"
     inkscape:showpageshadow="0"
     inkscape:pageopacity="0"
     inkscape:pagecheckerboard="0"
     inkscape:deskcolor="#505050"
     inkscape:document-units="mm"
     inkscape:zoom="0.34177336"
     inkscape:cx="1085.5147"
     inkscape:cy="343.79508"
     inkscape:window-width="1920"
     inkscape:window-height="1009"
     inkscape:window-x="1358"
     inkscape:window-y="-8"
     inkscape:window-maximized="1"
     inkscape:current-layer="layer1"><inkscape:page
       x="0"
       y="0"
       width="269.1149"
       height="77.19809"
       id="page2"
       margin="0"
       bleed="0"
       inkscape:export-filename="Documents\Documents\Documents\logo.svg"
       inkscape:export-xdpi="96"
       inkscape:export-ydpi="96" /></sodipodi:namedview><defs
     id="defs1" /><g
     inkscape:label="Layer 1"
     inkscape:groupmode="layer"
     id="layer1"
     transform="translate(-127.34743,113.02568)"><path
       d="m 144.14302,-58.32444 q -4.08333,0 -7.47327,-1.772012 -3.31289,-1.849056 -5.62421,-5.238992 -1.77201,-2.619496 -2.77358,-6.009432 -0.92453,-3.389936 -0.92453,-6.93396 0,-8.320752 2.92767,-15.485844 2.6195,-6.31761 7.47327,-11.01729 3.8522,-3.77516 8.62893,-5.85535 4.77672,-2.15723 9.47641,-2.15723 6.16352,0 10.63207,3.1588 4.46855,3.15881 4.46855,9.6305 0,3.466986 -2.00314,7.39623 -1.9261,3.8522 -5.47013,7.396224 -3.23584,3.235848 -6.70282,5.084904 -3.77516,2.157232 -7.08805,2.157232 -4.5456,0 -7.24214,-2.69654 -2.61949,-2.773584 -2.61949,-6.93396 0,-3.004716 1.46383,-5.932388 1.46384,-3.004716 4.23742,-5.547168 2.23428,-2.080194 4.85377,-3.312894 2.6195,-1.30975 4.69969,-1.30975 1.07861,0 1.77201,0.77044 0.77044,0.6934 0.77044,1.77201 0,1.00157 -0.77044,1.772018 -0.6934,0.77044 -1.77201,0.77044 -0.92453,0 -2.69654,0.847484 -1.77201,0.847484 -3.46698,2.465408 -2.31132,2.080188 -3.15881,4.160376 -0.84748,2.003144 -0.84748,3.544024 0,2.234276 1.2327,3.389936 1.23271,1.15566 3.54403,1.15566 2.00314,0 4.77673,-1.54088 2.85062,-1.617924 5.47012,-4.23742 2.77358,-2.773584 4.31446,-5.7783 1.61793,-3.004716 1.61793,-5.393086 0,-4.23742 -3.31289,-6.16352 -2.69654,-1.54088 -6.85692,-1.54088 -3.54402,0 -7.39622,1.77202 -3.8522,1.69496 -7.01101,4.77672 -4.16037,4.006294 -6.31761,9.399374 -2.54245,6.086476 -2.54245,13.4827 0,3.08176 1.07862,6.54874 1.07861,3.389936 3.69811,5.855344 2.6195,2.465408 6.93396,2.465408 9.16824,0 14.40723,-5.701256 5.31603,-5.7783 7.55031,-10.169808 0.30818,-0.77044 0.92453,-1.15566 0.69339,-0.38522 1.46383,-0.38522 0.53931,0 1.00158,0.231132 1.46383,0.693396 1.46383,2.31132 0,0.462264 -0.23113,1.078616 -0.23113,0.77044 -2.00314,3.621068 -1.69497,2.850628 -4.39151,5.701256 -4.31447,4.699684 -9.47641,7.165092 -5.08491,2.388364 -10.70912,2.388364 z m 54.23898,-23.1132 q 1.15566,0 1.84905,0.77044 0.6934,0.77044 0.6934,1.772012 0,0.539308 -0.23113,1.001572 -1.30975,3.08176 -3.92925,7.550312 -2.61949,4.391508 -5.93239,7.935532 -3.31289,3.544024 -6.3176,3.544024 -3.92925,0 -5.70126,-2.619496 -0.30818,-0.38522 -0.38522,-0.847484 -4.5456,3.46698 -8.78302,3.46698 -3.38993,0 -5.31603,-2.619496 -1.46384,-2.003144 -1.46384,-5.39308 0,-3.544024 1.54088,-7.935532 1.54088,-4.468552 4.16038,-8.705972 2.54245,-4.23742 5.70125,-6.856916 3.77516,-3.158804 7.31918,-3.158804 3.3129,0 5.54717,1.54088 1.15566,0.924528 1.69497,1.849056 l 0.6934,-1.386792 0.30817,-0.539308 q 0.77044,-1.463836 2.31132,-1.463836 1.07862,0 1.77201,0.77044 0.6934,0.77044 0.6934,1.772012 0,0.616352 -0.23113,1.078616 l -0.30818,0.616352 q -7.47327,15.485844 -8.78301,18.336472 -0.30818,0.462264 -0.53931,1.001572 -0.15409,0.462264 -0.38522,0.847484 -0.84749,1.694968 -1.15566,2.773584 -0.23113,1.078616 -0.23113,1.54088 0.077,0.462264 0.15408,0.539308 0,0.07704 0.30818,0.231132 0.38522,0.07704 1.07862,0.07704 2.61949,0 5.85534,-5.161948 3.23585,-5.161948 5.70126,-10.78616 0.30817,-0.693396 0.92452,-1.078616 0.61636,-0.462264 1.3868,-0.462264 z m -22.5739,14.715404 q 1.3868,-1.15566 2.38837,-2.388364 1.07861,-1.232704 1.54088,-2.080188 v -0.07704 l 0.92453,-1.849056 1.46383,-3.235848 q -0.77044,0.07704 -1.46383,-0.38522 -0.61636,-0.539308 -0.92453,-1.309748 -0.15409,-0.308176 -0.15409,-0.924528 0,-0.77044 0.46226,-1.386792 0.46227,-0.616352 1.23271,-0.924528 1.38679,-0.539308 2.54245,-2.388364 1.15566,-1.849056 0.92453,-3.312892 -0.30818,-1.463836 -3.15881,-1.463836 -1.77201,0 -4.23742,2.080188 -2.38836,2.080188 -4.54559,5.547168 -2.15723,3.544024 -3.54403,7.396224 -1.30974,3.775156 -1.30974,6.54874 0,1.54088 0.46226,2.465408 0.46226,0.462264 1.2327,0.462264 2.77359,0 6.16352,-2.773584 z m 51.85067,-14.25314 q 0.77044,0.308176 1.15566,0.924528 0.38522,0.616352 0.38522,1.386792 0,0.539308 -0.23113,1.001572 -3.31289,6.317608 -7.24213,9.24528 -3.92925,2.850628 -8.16667,2.850628 -4.69968,6.702828 -10.01572,6.702828 -4.31446,0 -6.39465,-3.158804 -1.00157,-1.463836 -1.00157,-3.389936 0,-1.309748 0.46226,-2.465408 2.00315,-4.23742 6.85692,-4.23742 1.46383,0 5.16195,0.77044 l 2.38836,0.462264 q 1.77201,-3.158804 3.46698,-7.396224 1.00157,-2.69654 1.00157,-4.62264 0,-2.465408 -1.07861,-3.698112 -1.15566,-1.849056 -3.38994,-1.849056 -1.54088,0 -3.8522,1.078616 -2.31132,1.078616 -3.23585,3.08176 -0.077,0.308176 -0.38522,0.616352 l -11.24842,23.421376 q -0.30818,0.616352 -1.00157,1.001572 -0.61636,0.38522 -1.30975,0.38522 -0.53931,0 -1.07862,-0.231132 -0.69339,-0.308176 -1.07861,-0.924528 -0.38522,-0.616352 -0.38522,-1.386792 0,-0.539308 0.23113,-1.001572 l 23.57546,-49.154078 q 0.77044,-1.46383 2.31132,-1.46383 1.15566,0 1.84906,0.77044 0.69339,0.77044 0.69339,1.84905 0,0.53931 -0.23113,1.00158 l -7.85849,16.333326 q 1.84906,-0.462264 3.00472,-0.462264 2.31132,0 4.31446,1.078616 2.00315,1.078616 3.3129,3.004716 1.9261,2.850628 1.9261,6.54874 0,3.08176 -1.3868,6.471696 -0.92452,2.388364 -2.38836,5.470124 0.6934,-0.231132 2.08019,-1.232704 1.38679,-1.078616 2.85063,-3.004716 1.54088,-1.9261 2.61949,-4.468552 0.30818,-0.77044 0.92453,-1.15566 0.61635,-0.38522 1.38679,-0.38522 0.53931,0 1.00157,0.231132 z M 203.544,-63.948652 q 1.9261,0 4.16038,-2.388364 0,-0.07704 -0.15409,-0.07704 -3.08176,-0.616352 -4.08333,-0.616352 h -0.53931 q -0.61635,0.07704 -1.00157,0.308176 -0.38522,0.231132 -0.6934,0.924528 v 0.308176 q 0,0.462264 0.15409,0.77044 0.61635,0.77044 2.15723,0.77044 z m 24.9623,5.084904 q -4.00629,0 -6.31761,-2.157232 -2.23427,-2.157232 -2.23427,-5.932388 0,-3.312892 2.77358,-9.861632 2.38837,-5.624212 6.00943,-12.558172 5.31604,-10.40094 8.55189,-15.408798 1.77201,-2.92768 4.62264,-5.47013 2.92767,-2.54245 5.85534,-2.54245 3.77516,0 3.77516,5.00786 0,1.77201 -0.46227,3.69811 -0.38522,1.84906 -0.77044,2.69654 -1.38679,3.00472 -3.08176,6.009436 -1.69496,2.927672 -4.62264,6.856916 -3.77515,5.238992 -7.31918,8.320752 -3.8522,3.312892 -7.24213,3.8522 -3.00472,6.779872 -3.00472,9.399368 0,1.772012 0.84749,2.388364 0.84748,0.616352 2.61949,0.616352 1.07862,0 3.23585,-1.232704 2.15723,-1.232704 4.62264,-3.46698 2.69654,-2.388364 5.00786,-5.39308 2.38836,-3.08176 4.00629,-6.16352 0.30817,-0.616352 0.92453,-1.001572 0.69339,-0.38522 1.38679,-0.38522 1.15566,0 1.77201,0.77044 0.6934,0.693396 0.6934,1.772012 0,0.616352 -0.23114,1.232704 -1.84905,3.46698 -4.54559,6.856916 -2.6195,3.389936 -5.62421,6.086476 -6.62579,6.009432 -11.24843,6.009432 z m 3.08176,-24.885212 q 3.00472,-2.465408 6.93396,-7.7044 4.69969,-6.54874 7.16509,-12.09591 0.92453,-1.9261 0.92453,-3.69811 -1.00157,0.61635 -1.54088,1.07861 -2.38836,2.08019 -4.85377,6.24057 -2.46541,4.160376 -7.011,12.866348 z m 21.2642,24.885212 q -2.54245,0 -4.69968,-1.232704 -2.15724,-1.232704 -3.46698,-3.389936 -2.00315,-3.08176 -1.77202,-7.473268 v -0.07704 q 0.38522,-4.699684 2.46541,-8.937104 3.46698,-6.779872 8.24371,-10.40094 1.9261,-1.463836 3.8522,-2.31132 1.9261,-0.847484 3.46698,-0.847484 2.08019,0 3.62107,1.001572 1.61792,0.924528 2.38836,2.69654 0.53931,1.463836 0.53931,2.619496 0,2.31132 -1.38679,4.930816 -1.30975,2.619496 -3.92925,5.238992 h -0.077 q -1.9261,1.9261 -5.16195,4.083332 -4.93081,3.158804 -8.9371,3.8522 0.23113,1.772012 1.00157,3.004716 1.30975,2.157232 3.8522,2.157232 3.00472,0 5.7783,-2.234276 2.77358,-2.234276 5.16195,-5.470124 1.9261,-2.542452 3.31289,-5.238992 1.46384,-2.773584 1.46384,-3.004716 0.38522,-0.693396 1.00157,-1.078616 0.61635,-0.462264 1.38679,-0.462264 1.07862,0 1.77201,0.847484 0.77044,0.77044 0.77044,1.772012 0,0.462264 -0.23113,0.924528 -0.23113,0.693396 -1.77201,3.544024 -1.46384,2.850628 -3.54403,5.701256 -3.31289,4.314464 -6.3176,6.54874 -4.46856,3.235848 -8.78302,3.235848 z m -4.23742,-15.639932 q 2.69654,-0.847484 5.47012,-2.69654 2.77359,-1.849056 4.5456,-3.46698 2.23428,-2.234276 3.38994,-4.776728 0.5393,-1.772012 0.23113,-2.388364 -0.30818,-0.616352 -1.30975,-0.616352 -0.77044,0 -2.6195,1.001572 -1.77201,0.924528 -4.08333,3.312892 -2.31132,2.388364 -4.31446,6.394652 -0.53931,1.078616 -1.30975,3.235848 z m 79.66355,-35.90251 q 1.07862,0 1.77202,0.77044 0.77044,0.6934 0.77044,1.69497 0,5.62421 -5.85535,12.404088 -4.31446,5.00786 -11.86477,10.709116 -4.93082,3.621068 -9.32233,6.471696 5.08491,1.309748 6.93396,4.23742 0.92453,1.54088 0.92453,3.158804 0,1.694968 -0.84748,3.46698 -1.23271,2.234276 -2.08019,4.62264 -0.84749,2.388364 -0.84749,4.160376 0,1.15566 0.46227,1.849056 0.69339,1.232704 2.38836,1.232704 1.07862,0 1.77201,0.693396 0.77044,0.77044 0.77044,1.849056 0,1.078616 -0.77044,1.772012 -0.69339,0.77044 -1.77201,0.77044 -2.15723,0 -3.8522,-0.924528 -1.69496,-0.924528 -2.77358,-2.69654 -1.15566,-1.694968 -1.15566,-4.314464 0,-4.545596 3.23585,-11.17138 0.5393,-1.078616 0.38522,-1.386792 -0.15409,-0.38522 -0.15409,-0.462264 -0.77044,-1.15566 -3.69811,-1.849056 -2.85063,-0.77044 -5.54717,-0.847484 h -0.23113 l -0.15409,0.07704 -6.70283,13.86792 q -0.77044,1.386792 -2.31132,1.386792 -0.46226,0 -1.07861,-0.231132 -0.61636,-0.308176 -1.00158,-0.924528 -0.38522,-0.693396 -0.38522,-1.386792 0,-0.539308 0.23114,-1.078616 l 6.93396,-14.330184 0.23113,-0.539308 9.09119,-18.721692 v -0.07704 q 2.69654,-5.007866 2.69654,-8.705976 0,-1.2327 -0.38522,-2.00314 -0.30818,-0.84749 -2.15723,-0.84749 -1.61793,0 -4.77673,1.07862 -3.08176,1.00157 -6.08648,2.69654 -3.31289,1.84905 -5.23899,3.8522 -1.84905,1.926102 -1.84905,3.62107 0,1.309748 1.15566,2.69654 1.15566,1.309748 2.85062,2.234276 1.77202,0.924528 3.38994,0.924528 1.07862,0 1.77201,0.77044 0.77044,0.693396 0.77044,1.772012 0,1.001572 -0.77044,1.772012 -0.69339,0.77044 -1.77201,0.77044 -2.08019,0 -4.23742,-0.847484 -2.15723,-0.847484 -4.00629,-2.388364 -2.00314,-1.617924 -3.1588,-3.621068 -1.07862,-2.080188 -1.07862,-4.083332 0,-2.773584 2.08019,-5.7783 2.15723,-3.08176 7.62736,-6.08648 3.46698,-1.9261 7.24213,-3.1588 3.77516,-1.30975 6.08648,-1.30975 4.54559,0 6.54874,3.31289 1.15566,1.77201 1.15566,4.5456 0,4.46855 -3.3129,11.094336 l -5.47012,11.248424 q 4.00629,-2.465408 9.24528,-6.317608 9.01415,-6.856916 12.32704,-11.479562 3.31289,-4.69968 3.31289,-7.55031 0,-1.00157 0.6934,-1.69497 0.77044,-0.77044 1.84905,-0.77044 z m 4.77668,15.639938 q -1.38679,0 -2.38836,-1.001572 -0.92453,-1.001572 -0.92453,-2.388364 0,-1.463836 0.92453,-2.465412 0.92453,-1.00157 2.38836,-1.00157 1.30975,0 2.23428,1.00157 1.00157,1.001576 1.00157,2.465412 0,1.386792 -1.00157,2.388364 -0.92453,1.001572 -2.23428,1.001572 z m -11.01729,35.902504 q -1.84906,0 -3.23585,-0.616352 -1.38679,-0.693396 -2.4654,-2.388364 -0.92453,-1.54088 -0.92453,-3.621068 0,-1.078616 0.38522,-2.773584 0.46226,-1.617924 1.15566,-3.004716 l 9.78458,-19.569176 q 0.30818,-0.616352 0.92453,-1.001572 0.6934,-0.38522 1.38679,-0.38522 1.07862,0 1.77202,0.77044 0.69339,0.77044 0.69339,1.772012 0,0.616352 -0.23113,1.078616 l -9.78459,19.569176 v 0.07704 q -0.84748,1.694968 -0.84748,3.235848 0,1.772012 1.46383,1.772012 2.69654,0 5.54717,-3.621068 2.85063,-3.621068 5.00786,-7.935532 2.23428,-4.391508 2.23428,-4.776728 0.38522,-0.539308 0.92453,-0.847484 0.61635,-0.308176 1.2327,-0.308176 0.6934,0 1.38679,0.462264 0.53931,0.38522 0.84749,1.001572 0.30817,0.539308 0.30817,1.15566 0,0.693396 -0.46226,1.386792 -0.077,0.154088 -1.9261,4.62264 -1.77201,4.391508 -6.16352,9.168236 -4.39151,4.776728 -9.01415,4.776728 z m 31.35689,-22.111628 q 0.53931,0.38522 0.84749,1.001572 0.30817,0.539308 0.30817,1.15566 0,0.693396 -0.46226,1.386792 -0.077,0.07704 -2.85063,4.545596 -2.69654,4.468552 -7.55031,9.24528 -4.77673,4.776728 -8.24371,4.776728 -1.84906,0 -3.23585,-0.616352 -1.38679,-0.693396 -2.46541,-2.388364 -0.92452,-1.54088 -0.92452,-3.621068 0,-1.078616 0.38522,-2.773584 0.46226,-1.617924 1.15566,-3.004716 l 16.33332,-32.897788 q 0.30818,-0.61635 0.92453,-1.00157 0.6934,-0.38522 1.38679,-0.38522 1.07862,0 1.77202,0.77044 0.69339,0.77043 0.69339,1.77201 0,0.61635 -0.23113,1.07861 l -4.16038,8.397802 h 3.46698 q 1.07862,0 1.77202,0.77044 0.77044,0.693396 0.77044,1.772012 0,1.001572 -0.77044,1.772012 -0.6934,0.77044 -1.77202,0.77044 h -6.00943 l -9.6305,19.415088 v 0.07704 q -0.92453,1.849056 -0.92453,3.312892 0,1.694968 1.46384,1.694968 1.9261,0 5.16195,-3.621068 3.23585,-3.621068 6.24056,-8.012576 3.00472,-4.468552 3.00472,-4.699684 0.38522,-0.539308 0.92453,-0.847484 0.61635,-0.308176 1.2327,-0.308176 0.6934,0 1.38679,0.462264 z m 15.17771,0 q 0.5393,0.38522 0.84748,1.001572 0.30818,0.539308 0.30818,1.15566 0,0.693396 -0.46227,1.386792 -0.077,0.07704 -2.85063,4.545596 -2.69654,4.468552 -7.55031,9.24528 -4.77673,4.776728 -8.24371,4.776728 -1.84905,0 -3.23584,-0.616352 -1.3868,-0.693396 -2.46541,-2.388364 -0.92453,-1.54088 -0.92453,-3.621068 0,-1.078616 0.38522,-2.773584 0.46226,-1.617924 1.15566,-3.004716 l 16.33333,-32.897788 q 0.30817,-0.61635 0.92453,-1.00157 0.69339,-0.38522 1.38679,-0.38522 1.07861,0 1.77201,0.77044 0.6934,0.77043 0.6934,1.77201 0,0.61635 -0.23114,1.07861 l -4.16037,8.397802 h 3.46698 q 1.07861,0 1.77201,0.77044 0.77044,0.693396 0.77044,1.772012 0,1.001572 -0.77044,1.772012 -0.6934,0.77044 -1.77201,0.77044 h -6.00943 l -9.6305,19.415088 v 0.07704 q -0.92453,1.849056 -0.92453,3.312892 0,1.694968 1.46383,1.694968 1.9261,0 5.16195,-3.621068 3.23585,-3.621068 6.24057,-8.012576 3.00471,-4.468552 3.00471,-4.699684 0.38522,-0.539308 0.92453,-0.847484 0.61635,-0.308176 1.2327,-0.308176 0.6934,0 1.3868,0.462264 z m 26.34906,-0.154088 q 0.69339,0.231132 1.07861,0.847484 0.46227,0.616352 0.46227,1.386792 0,0.539308 -0.23114,1.001572 -3.46698,7.088048 -8.70597,11.633644 -5.23899,4.545596 -10.09276,7.088048 -3.77516,8.243708 -7.16509,16.025151 -1.23271,2.69654 -2.92768,4.391508 -2.77358,2.927672 -6.39465,2.927672 -4.69968,0 -6.54874,-3.235848 -0.84748,-1.463836 -0.84748,-3.46698 0,-2.619495 1.2327,-4.930815 2.00315,-3.544024 5.16195,-6.394652 3.1588,-2.773584 7.47327,-5.316036 -1.00157,0.308176 -2.08019,0.308176 -3.8522,0 -5.62421,-2.619496 -0.92453,-1.54088 -0.92453,-3.312892 0,-2.465408 1.84906,-6.471696 l 0.84748,-1.849056 8.86006,-18.336472 0.30818,-0.616352 q 0.30817,-0.693396 0.92452,-1.078616 0.6934,-0.38522 1.3868,-0.38522 1.15566,0 1.84905,0.77044 0.6934,0.77044 0.6934,1.772012 0,0.462264 -0.23113,1.078616 l -0.38522,0.693396 q -7.47327,15.4088 -8.78302,18.259428 l -0.92453,1.849056 q -0.77044,1.694968 -1.07861,2.773584 -0.23114,1.078616 -0.23114,1.54088 0,0.462264 0.077,0.539308 0.30817,0.308176 1.38679,0.308176 0.84748,0 3.54402,-1.772012 2.69654,-1.772012 7.1651,-7.396224 3.00471,-3.775156 5.70125,-8.47484 2.69654,-4.699684 5.54717,-10.477984 0.77044,-1.463836 2.31132,-1.463836 1.15566,0 1.84906,0.77044 0.69339,0.693396 0.69339,1.694968 0,0.539308 -0.23113,1.15566 l -10.70912,22.265716 q 3.08176,-2.234276 5.62422,-5.00786 2.61949,-2.773584 4.77672,-7.088048 0.30818,-0.77044 0.92453,-1.15566 0.61635,-0.462264 1.38679,-0.462264 0.53931,0 1.00158,0.231132 z m -21.41824,18.182384 -0.46226,0.38522 0.38522,-0.231132 z m -7.93553,17.797164 q 0.77044,-1.772012 1.07862,-2.31132 0.92453,-2.234276 3.23585,-7.31918 -3.77516,2.388364 -6.39466,4.62264 -2.61949,2.31132 -4.31446,5.238992 -0.53931,0.924527 -0.53931,2.311319 0,0.77044 0.15409,1.001572 0.46227,0.693396 2.15723,0.693396 1.69497,0 2.92767,-1.617924 1.23271,-1.54088 1.69497,-2.619495 z"
       id="text2"
       style="font-size:77.044px;font-family:'Honey Bee';-inkscape-font-specification:'Honey Bee, Normal';white-space:pre;inline-size:303.472;fill:#ffffff;stroke-width:1.7;stroke-linejoin:round"
       aria-label=" Cable Kitty" /></g></svg>
